<mxfile host="app.diagrams.net" modified="2022-07-22T09:06:16.197Z" agent="5.0 (Macintosh; Intel Mac OS X 10_15_7) AppleWebKit/537.36 (KHTML, like Gecko) Chrome/103.0.0.0 Safari/537.36" etag="F49ci0lDxX1wOlJT8ZZt" version="20.0.4" type="github">
  <diagram id="8Tmfo4__LxJP5pN_mjPb" name="Page-1">
    <mxGraphModel dx="2224" dy="1812" grid="1" gridSize="10" guides="1" tooltips="1" connect="0" arrows="1" fold="1" page="1" pageScale="1" pageWidth="850" pageHeight="1100" math="0" shadow="0">
      <root>
        <mxCell id="0" />
        <mxCell id="1" parent="0" />
        <mxCell id="lo2OrRyrxvKk0OBogVc3-49" value="" style="rounded=1;whiteSpace=wrap;html=1;shadow=0;dashed=1;fontSize=10;strokeWidth=2;fontStyle=0" vertex="1" parent="1">
          <mxGeometry x="8.75" y="-575" width="135" height="170" as="geometry" />
        </mxCell>
        <mxCell id="lo2OrRyrxvKk0OBogVc3-48" value="" style="rounded=1;whiteSpace=wrap;html=1;shadow=0;dashed=1;fontSize=10;strokeWidth=2;fontStyle=0" vertex="1" parent="1">
          <mxGeometry x="-91.25" y="-653" width="100" height="66" as="geometry" />
        </mxCell>
        <mxCell id="VgGNdjIqza_nGkoxZU1C-379" value="&lt;font style=&quot;font-size: 12px;&quot;&gt;Raw Data&lt;/font&gt;" style="shape=table;startSize=30;container=1;collapsible=0;childLayout=tableLayout;rounded=1;glass=0;fontFamily=Helvetica;fontSize=9;fontColor=default;strokeColor=#000000;fillColor=#ffffff;gradientColor=none;html=1;shadow=0;fixedRows=1;strokeWidth=2;fontStyle=0" parent="1" vertex="1">
          <mxGeometry x="-534" y="-600" width="309" height="198" as="geometry" />
        </mxCell>
        <mxCell id="VgGNdjIqza_nGkoxZU1C-262" value="" style="shape=tableRow;horizontal=0;startSize=0;swimlaneHead=0;swimlaneBody=0;top=0;left=0;bottom=0;right=0;collapsible=0;dropTarget=0;fillColor=none;points=[[0,0.5],[1,0.5]];portConstraint=eastwest;rounded=0;glass=0;fontFamily=Helvetica;fontSize=9;fontColor=default;strokeColor=#c0c0c0;html=1;shadow=1;fontStyle=0" parent="VgGNdjIqza_nGkoxZU1C-379" vertex="1">
          <mxGeometry y="30" width="309" height="28" as="geometry" />
        </mxCell>
        <mxCell id="VgGNdjIqza_nGkoxZU1C-481" value="UID" style="shape=partialRectangle;html=1;whiteSpace=wrap;connectable=0;overflow=hidden;fillColor=none;top=0;left=0;bottom=0;right=0;pointerEvents=1;rounded=0;glass=0;fontFamily=Helvetica;fontSize=9;fontColor=default;startSize=30;strokeColor=#c0c0c0;shadow=1;fontStyle=0" parent="VgGNdjIqza_nGkoxZU1C-262" vertex="1">
          <mxGeometry width="39" height="28" as="geometry">
            <mxRectangle width="39" height="28" as="alternateBounds" />
          </mxGeometry>
        </mxCell>
        <mxCell id="VgGNdjIqza_nGkoxZU1C-263" value="SEX" style="shape=partialRectangle;html=1;whiteSpace=wrap;connectable=0;overflow=hidden;fillColor=none;top=0;left=0;bottom=0;right=0;pointerEvents=1;rounded=0;glass=0;fontFamily=Helvetica;fontSize=9;fontColor=default;startSize=30;strokeColor=#c0c0c0;shadow=1;fontStyle=0" parent="VgGNdjIqza_nGkoxZU1C-262" vertex="1">
          <mxGeometry x="39" width="39" height="28" as="geometry">
            <mxRectangle width="39" height="28" as="alternateBounds" />
          </mxGeometry>
        </mxCell>
        <mxCell id="VgGNdjIqza_nGkoxZU1C-264" value="AGE" style="shape=partialRectangle;html=1;whiteSpace=wrap;connectable=0;overflow=hidden;fillColor=none;top=0;left=0;bottom=0;right=0;pointerEvents=1;rounded=0;glass=0;fontFamily=Helvetica;fontSize=9;fontColor=default;startSize=30;strokeColor=#c0c0c0;shadow=1;fontStyle=0" parent="VgGNdjIqza_nGkoxZU1C-262" vertex="1">
          <mxGeometry x="78" width="38" height="28" as="geometry">
            <mxRectangle width="38" height="28" as="alternateBounds" />
          </mxGeometry>
        </mxCell>
        <mxCell id="VgGNdjIqza_nGkoxZU1C-265" value="HEIGHT" style="shape=partialRectangle;html=1;whiteSpace=wrap;connectable=0;overflow=hidden;fillColor=none;top=0;left=0;bottom=0;right=0;pointerEvents=1;rounded=0;glass=0;fontFamily=Helvetica;fontSize=9;fontColor=default;startSize=30;strokeColor=#c0c0c0;shadow=1;fontStyle=0" parent="VgGNdjIqza_nGkoxZU1C-262" vertex="1">
          <mxGeometry x="116" width="39" height="28" as="geometry">
            <mxRectangle width="39" height="28" as="alternateBounds" />
          </mxGeometry>
        </mxCell>
        <mxCell id="VgGNdjIqza_nGkoxZU1C-266" value="&lt;span style=&quot;font-size: 9px;&quot;&gt;WEIGHT&lt;/span&gt;" style="shape=partialRectangle;html=1;whiteSpace=wrap;connectable=0;overflow=hidden;fillColor=none;top=0;left=0;bottom=0;right=0;pointerEvents=1;rounded=0;glass=0;fontFamily=Helvetica;fontSize=9;fontColor=default;startSize=30;strokeColor=#c0c0c0;shadow=1;fontStyle=0" parent="VgGNdjIqza_nGkoxZU1C-262" vertex="1">
          <mxGeometry x="155" width="38" height="28" as="geometry">
            <mxRectangle width="38" height="28" as="alternateBounds" />
          </mxGeometry>
        </mxCell>
        <mxCell id="VgGNdjIqza_nGkoxZU1C-267" value="MARITAL" style="shape=partialRectangle;html=1;whiteSpace=wrap;connectable=0;overflow=hidden;fillColor=none;top=0;left=0;bottom=0;right=0;pointerEvents=1;rounded=0;glass=0;fontFamily=Helvetica;fontSize=9;fontColor=default;startSize=30;strokeColor=#c0c0c0;shadow=1;fontStyle=0" parent="VgGNdjIqza_nGkoxZU1C-262" vertex="1">
          <mxGeometry x="193" width="39" height="28" as="geometry">
            <mxRectangle width="39" height="28" as="alternateBounds" />
          </mxGeometry>
        </mxCell>
        <mxCell id="VgGNdjIqza_nGkoxZU1C-268" value="..." style="shape=partialRectangle;html=1;whiteSpace=wrap;connectable=0;overflow=hidden;fillColor=none;top=0;left=0;bottom=0;right=0;pointerEvents=1;rounded=0;glass=0;fontFamily=Helvetica;fontSize=9;fontColor=default;startSize=30;strokeColor=#c0c0c0;shadow=1;fontStyle=0" parent="VgGNdjIqza_nGkoxZU1C-262" vertex="1">
          <mxGeometry x="232" width="38" height="28" as="geometry">
            <mxRectangle width="38" height="28" as="alternateBounds" />
          </mxGeometry>
        </mxCell>
        <mxCell id="VgGNdjIqza_nGkoxZU1C-269" value="SICK" style="shape=partialRectangle;html=1;whiteSpace=wrap;connectable=0;overflow=hidden;fillColor=none;top=0;left=0;bottom=0;right=0;pointerEvents=1;rounded=0;glass=0;fontFamily=Helvetica;fontSize=9;fontColor=default;startSize=30;strokeColor=#c0c0c0;shadow=1;fontStyle=0" parent="VgGNdjIqza_nGkoxZU1C-262" vertex="1">
          <mxGeometry x="270" width="39" height="28" as="geometry">
            <mxRectangle width="39" height="28" as="alternateBounds" />
          </mxGeometry>
        </mxCell>
        <mxCell id="VgGNdjIqza_nGkoxZU1C-270" value="" style="shape=tableRow;horizontal=0;startSize=0;swimlaneHead=0;swimlaneBody=0;top=0;left=0;bottom=0;right=0;collapsible=0;dropTarget=0;fillColor=none;points=[[0,0.5],[1,0.5]];portConstraint=eastwest;rounded=0;glass=0;fontFamily=Helvetica;fontSize=9;fontColor=default;strokeColor=#c0c0c0;html=1;shadow=1;fontStyle=0" parent="VgGNdjIqza_nGkoxZU1C-379" vertex="1">
          <mxGeometry y="58" width="309" height="28" as="geometry" />
        </mxCell>
        <mxCell id="VgGNdjIqza_nGkoxZU1C-482" value="1" style="shape=partialRectangle;html=1;whiteSpace=wrap;connectable=0;overflow=hidden;fillColor=none;top=0;left=0;bottom=0;right=0;pointerEvents=1;rounded=0;glass=0;fontFamily=Helvetica;fontSize=9;fontColor=default;startSize=30;strokeColor=#c0c0c0;shadow=1;fontStyle=0" parent="VgGNdjIqza_nGkoxZU1C-270" vertex="1">
          <mxGeometry width="39" height="28" as="geometry">
            <mxRectangle width="39" height="28" as="alternateBounds" />
          </mxGeometry>
        </mxCell>
        <mxCell id="VgGNdjIqza_nGkoxZU1C-271" value="1" style="shape=partialRectangle;html=1;whiteSpace=wrap;connectable=0;overflow=hidden;fillColor=none;top=0;left=0;bottom=0;right=0;pointerEvents=1;rounded=0;glass=0;fontFamily=Helvetica;fontSize=9;fontColor=default;startSize=30;strokeColor=#c0c0c0;shadow=1;fontStyle=0" parent="VgGNdjIqza_nGkoxZU1C-270" vertex="1">
          <mxGeometry x="39" width="39" height="28" as="geometry">
            <mxRectangle width="39" height="28" as="alternateBounds" />
          </mxGeometry>
        </mxCell>
        <mxCell id="VgGNdjIqza_nGkoxZU1C-272" value="36" style="shape=partialRectangle;html=1;whiteSpace=wrap;connectable=0;overflow=hidden;fillColor=none;top=0;left=0;bottom=0;right=0;pointerEvents=1;rounded=0;glass=0;fontFamily=Helvetica;fontSize=9;fontColor=default;startSize=30;strokeColor=#c0c0c0;shadow=1;fontStyle=0" parent="VgGNdjIqza_nGkoxZU1C-270" vertex="1">
          <mxGeometry x="78" width="38" height="28" as="geometry">
            <mxRectangle width="38" height="28" as="alternateBounds" />
          </mxGeometry>
        </mxCell>
        <mxCell id="VgGNdjIqza_nGkoxZU1C-273" value="176" style="shape=partialRectangle;html=1;whiteSpace=wrap;connectable=0;overflow=hidden;fillColor=none;top=0;left=0;bottom=0;right=0;pointerEvents=1;rounded=0;glass=0;fontFamily=Helvetica;fontSize=9;fontColor=default;startSize=30;strokeColor=#c0c0c0;shadow=1;fontStyle=0" parent="VgGNdjIqza_nGkoxZU1C-270" vertex="1">
          <mxGeometry x="116" width="39" height="28" as="geometry">
            <mxRectangle width="39" height="28" as="alternateBounds" />
          </mxGeometry>
        </mxCell>
        <mxCell id="VgGNdjIqza_nGkoxZU1C-274" value="180" style="shape=partialRectangle;html=1;whiteSpace=wrap;connectable=0;overflow=hidden;fillColor=none;top=0;left=0;bottom=0;right=0;pointerEvents=1;rounded=0;glass=0;fontFamily=Helvetica;fontSize=9;fontColor=default;startSize=30;strokeColor=#c0c0c0;shadow=1;fontStyle=0" parent="VgGNdjIqza_nGkoxZU1C-270" vertex="1">
          <mxGeometry x="155" width="38" height="28" as="geometry">
            <mxRectangle width="38" height="28" as="alternateBounds" />
          </mxGeometry>
        </mxCell>
        <mxCell id="VgGNdjIqza_nGkoxZU1C-275" value="1" style="shape=partialRectangle;html=1;whiteSpace=wrap;connectable=0;overflow=hidden;fillColor=none;top=0;left=0;bottom=0;right=0;pointerEvents=1;rounded=0;glass=0;fontFamily=Helvetica;fontSize=9;fontColor=default;startSize=30;strokeColor=#c0c0c0;shadow=1;fontStyle=0" parent="VgGNdjIqza_nGkoxZU1C-270" vertex="1">
          <mxGeometry x="193" width="39" height="28" as="geometry">
            <mxRectangle width="39" height="28" as="alternateBounds" />
          </mxGeometry>
        </mxCell>
        <mxCell id="VgGNdjIqza_nGkoxZU1C-276" value="..." style="shape=partialRectangle;html=1;whiteSpace=wrap;connectable=0;overflow=hidden;fillColor=none;top=0;left=0;bottom=0;right=0;pointerEvents=1;rounded=0;glass=0;fontFamily=Helvetica;fontSize=9;fontColor=default;startSize=30;strokeColor=#c0c0c0;shadow=1;fontStyle=0" parent="VgGNdjIqza_nGkoxZU1C-270" vertex="1">
          <mxGeometry x="232" width="38" height="28" as="geometry">
            <mxRectangle width="38" height="28" as="alternateBounds" />
          </mxGeometry>
        </mxCell>
        <mxCell id="VgGNdjIqza_nGkoxZU1C-277" value="1" style="shape=partialRectangle;html=1;whiteSpace=wrap;connectable=0;overflow=hidden;fillColor=none;top=0;left=0;bottom=0;right=0;pointerEvents=1;rounded=0;glass=0;fontFamily=Helvetica;fontSize=9;fontColor=default;startSize=30;strokeColor=#c0c0c0;shadow=1;fontStyle=0" parent="VgGNdjIqza_nGkoxZU1C-270" vertex="1">
          <mxGeometry x="270" width="39" height="28" as="geometry">
            <mxRectangle width="39" height="28" as="alternateBounds" />
          </mxGeometry>
        </mxCell>
        <mxCell id="VgGNdjIqza_nGkoxZU1C-286" value="" style="shape=tableRow;horizontal=0;startSize=0;swimlaneHead=0;swimlaneBody=0;top=0;left=0;bottom=0;right=0;collapsible=0;dropTarget=0;fillColor=none;points=[[0,0.5],[1,0.5]];portConstraint=eastwest;rounded=0;glass=0;fontFamily=Helvetica;fontSize=9;fontColor=default;strokeColor=#c0c0c0;html=1;shadow=1;fontStyle=0" parent="VgGNdjIqza_nGkoxZU1C-379" vertex="1">
          <mxGeometry y="86" width="309" height="28" as="geometry" />
        </mxCell>
        <mxCell id="VgGNdjIqza_nGkoxZU1C-483" value="2" style="shape=partialRectangle;html=1;whiteSpace=wrap;connectable=0;overflow=hidden;fillColor=none;top=0;left=0;bottom=0;right=0;pointerEvents=1;rounded=0;glass=0;fontFamily=Helvetica;fontSize=9;fontColor=default;startSize=30;strokeColor=#c0c0c0;shadow=1;fontStyle=0" parent="VgGNdjIqza_nGkoxZU1C-286" vertex="1">
          <mxGeometry width="39" height="28" as="geometry">
            <mxRectangle width="39" height="28" as="alternateBounds" />
          </mxGeometry>
        </mxCell>
        <mxCell id="VgGNdjIqza_nGkoxZU1C-287" value="2" style="shape=partialRectangle;html=1;whiteSpace=wrap;connectable=0;overflow=hidden;fillColor=none;top=0;left=0;bottom=0;right=0;pointerEvents=1;rounded=0;glass=0;fontFamily=Helvetica;fontSize=9;fontColor=default;startSize=30;strokeColor=#c0c0c0;shadow=1;fontStyle=0" parent="VgGNdjIqza_nGkoxZU1C-286" vertex="1">
          <mxGeometry x="39" width="39" height="28" as="geometry">
            <mxRectangle width="39" height="28" as="alternateBounds" />
          </mxGeometry>
        </mxCell>
        <mxCell id="VgGNdjIqza_nGkoxZU1C-288" value="48" style="shape=partialRectangle;html=1;whiteSpace=wrap;connectable=0;overflow=hidden;fillColor=none;top=0;left=0;bottom=0;right=0;pointerEvents=1;rounded=0;glass=0;fontFamily=Helvetica;fontSize=9;fontColor=default;startSize=30;strokeColor=#c0c0c0;shadow=1;fontStyle=0" parent="VgGNdjIqza_nGkoxZU1C-286" vertex="1">
          <mxGeometry x="78" width="38" height="28" as="geometry">
            <mxRectangle width="38" height="28" as="alternateBounds" />
          </mxGeometry>
        </mxCell>
        <mxCell id="VgGNdjIqza_nGkoxZU1C-289" value="160" style="shape=partialRectangle;html=1;whiteSpace=wrap;connectable=0;overflow=hidden;fillColor=none;top=0;left=0;bottom=0;right=0;pointerEvents=1;rounded=0;glass=0;fontFamily=Helvetica;fontSize=9;fontColor=default;startSize=30;strokeColor=#c0c0c0;shadow=1;sketch=1;fontStyle=0" parent="VgGNdjIqza_nGkoxZU1C-286" vertex="1">
          <mxGeometry x="116" width="39" height="28" as="geometry">
            <mxRectangle width="39" height="28" as="alternateBounds" />
          </mxGeometry>
        </mxCell>
        <mxCell id="VgGNdjIqza_nGkoxZU1C-290" value="99" style="shape=partialRectangle;html=1;whiteSpace=wrap;connectable=0;overflow=hidden;fillColor=none;top=0;left=0;bottom=0;right=0;pointerEvents=1;rounded=0;glass=0;fontFamily=Helvetica;fontSize=9;fontColor=default;startSize=30;strokeColor=#c0c0c0;shadow=1;fontStyle=0" parent="VgGNdjIqza_nGkoxZU1C-286" vertex="1">
          <mxGeometry x="155" width="38" height="28" as="geometry">
            <mxRectangle width="38" height="28" as="alternateBounds" />
          </mxGeometry>
        </mxCell>
        <mxCell id="VgGNdjIqza_nGkoxZU1C-291" value="2" style="shape=partialRectangle;html=1;whiteSpace=wrap;connectable=0;overflow=hidden;fillColor=none;top=0;left=0;bottom=0;right=0;pointerEvents=1;rounded=0;glass=0;fontFamily=Helvetica;fontSize=9;fontColor=default;startSize=30;strokeColor=#c0c0c0;shadow=1;fontStyle=0" parent="VgGNdjIqza_nGkoxZU1C-286" vertex="1">
          <mxGeometry x="193" width="39" height="28" as="geometry">
            <mxRectangle width="39" height="28" as="alternateBounds" />
          </mxGeometry>
        </mxCell>
        <mxCell id="VgGNdjIqza_nGkoxZU1C-292" value="..." style="shape=partialRectangle;html=1;whiteSpace=wrap;connectable=0;overflow=hidden;fillColor=none;top=0;left=0;bottom=0;right=0;pointerEvents=1;rounded=0;glass=0;fontFamily=Helvetica;fontSize=9;fontColor=default;startSize=30;strokeColor=#c0c0c0;shadow=1;fontStyle=0" parent="VgGNdjIqza_nGkoxZU1C-286" vertex="1">
          <mxGeometry x="232" width="38" height="28" as="geometry">
            <mxRectangle width="38" height="28" as="alternateBounds" />
          </mxGeometry>
        </mxCell>
        <mxCell id="VgGNdjIqza_nGkoxZU1C-293" value="-1" style="shape=partialRectangle;html=1;whiteSpace=wrap;connectable=0;overflow=hidden;fillColor=none;top=0;left=0;bottom=0;right=0;pointerEvents=1;rounded=0;glass=0;fontFamily=Helvetica;fontSize=9;fontColor=default;startSize=30;strokeColor=#c0c0c0;shadow=1;fontStyle=0" parent="VgGNdjIqza_nGkoxZU1C-286" vertex="1">
          <mxGeometry x="270" width="39" height="28" as="geometry">
            <mxRectangle width="39" height="28" as="alternateBounds" />
          </mxGeometry>
        </mxCell>
        <mxCell id="VgGNdjIqza_nGkoxZU1C-420" value="" style="shape=tableRow;horizontal=0;startSize=0;swimlaneHead=0;swimlaneBody=0;top=0;left=0;bottom=0;right=0;collapsible=0;dropTarget=0;fillColor=none;points=[[0,0.5],[1,0.5]];portConstraint=eastwest;rounded=0;glass=0;fontFamily=Helvetica;fontSize=9;fontColor=default;strokeColor=#c0c0c0;html=1;shadow=1;fontStyle=0" parent="VgGNdjIqza_nGkoxZU1C-379" vertex="1">
          <mxGeometry y="114" width="309" height="28" as="geometry" />
        </mxCell>
        <mxCell id="VgGNdjIqza_nGkoxZU1C-484" value="3" style="shape=partialRectangle;html=1;whiteSpace=wrap;connectable=0;overflow=hidden;fillColor=none;top=0;left=0;bottom=0;right=0;pointerEvents=1;rounded=0;glass=0;fontFamily=Helvetica;fontSize=9;fontColor=default;startSize=30;strokeColor=#c0c0c0;shadow=1;fontStyle=0" parent="VgGNdjIqza_nGkoxZU1C-420" vertex="1">
          <mxGeometry width="39" height="28" as="geometry">
            <mxRectangle width="39" height="28" as="alternateBounds" />
          </mxGeometry>
        </mxCell>
        <mxCell id="VgGNdjIqza_nGkoxZU1C-421" value="2" style="shape=partialRectangle;html=1;whiteSpace=wrap;connectable=0;overflow=hidden;fillColor=none;top=0;left=0;bottom=0;right=0;pointerEvents=1;rounded=0;glass=0;fontFamily=Helvetica;fontSize=9;fontColor=default;startSize=30;strokeColor=#c0c0c0;shadow=1;fontStyle=0" parent="VgGNdjIqza_nGkoxZU1C-420" vertex="1">
          <mxGeometry x="39" width="39" height="28" as="geometry">
            <mxRectangle width="39" height="28" as="alternateBounds" />
          </mxGeometry>
        </mxCell>
        <mxCell id="VgGNdjIqza_nGkoxZU1C-422" value="52" style="shape=partialRectangle;html=1;whiteSpace=wrap;connectable=0;overflow=hidden;fillColor=none;top=0;left=0;bottom=0;right=0;pointerEvents=1;rounded=0;glass=0;fontFamily=Helvetica;fontSize=9;fontColor=default;startSize=30;strokeColor=#c0c0c0;shadow=1;fontStyle=0" parent="VgGNdjIqza_nGkoxZU1C-420" vertex="1">
          <mxGeometry x="78" width="38" height="28" as="geometry">
            <mxRectangle width="38" height="28" as="alternateBounds" />
          </mxGeometry>
        </mxCell>
        <mxCell id="VgGNdjIqza_nGkoxZU1C-423" value="162" style="shape=partialRectangle;html=1;whiteSpace=wrap;connectable=0;overflow=hidden;fillColor=none;top=0;left=0;bottom=0;right=0;pointerEvents=1;rounded=0;glass=0;fontFamily=Helvetica;fontSize=9;fontColor=default;startSize=30;strokeColor=#c0c0c0;shadow=1;sketch=1;fontStyle=0" parent="VgGNdjIqza_nGkoxZU1C-420" vertex="1">
          <mxGeometry x="116" width="39" height="28" as="geometry">
            <mxRectangle width="39" height="28" as="alternateBounds" />
          </mxGeometry>
        </mxCell>
        <mxCell id="VgGNdjIqza_nGkoxZU1C-424" value="110" style="shape=partialRectangle;html=1;whiteSpace=wrap;connectable=0;overflow=hidden;fillColor=none;top=0;left=0;bottom=0;right=0;pointerEvents=1;rounded=0;glass=0;fontFamily=Helvetica;fontSize=9;fontColor=default;startSize=30;strokeColor=#c0c0c0;shadow=1;fontStyle=0" parent="VgGNdjIqza_nGkoxZU1C-420" vertex="1">
          <mxGeometry x="155" width="38" height="28" as="geometry">
            <mxRectangle width="38" height="28" as="alternateBounds" />
          </mxGeometry>
        </mxCell>
        <mxCell id="VgGNdjIqza_nGkoxZU1C-425" value="2" style="shape=partialRectangle;html=1;whiteSpace=wrap;connectable=0;overflow=hidden;fillColor=none;top=0;left=0;bottom=0;right=0;pointerEvents=1;rounded=0;glass=0;fontFamily=Helvetica;fontSize=9;fontColor=default;startSize=30;strokeColor=#c0c0c0;shadow=1;fontStyle=0" parent="VgGNdjIqza_nGkoxZU1C-420" vertex="1">
          <mxGeometry x="193" width="39" height="28" as="geometry">
            <mxRectangle width="39" height="28" as="alternateBounds" />
          </mxGeometry>
        </mxCell>
        <mxCell id="VgGNdjIqza_nGkoxZU1C-426" value="..." style="shape=partialRectangle;html=1;whiteSpace=wrap;connectable=0;overflow=hidden;fillColor=none;top=0;left=0;bottom=0;right=0;pointerEvents=1;rounded=0;glass=0;fontFamily=Helvetica;fontSize=9;fontColor=default;startSize=30;strokeColor=#c0c0c0;shadow=1;fontStyle=0" parent="VgGNdjIqza_nGkoxZU1C-420" vertex="1">
          <mxGeometry x="232" width="38" height="28" as="geometry">
            <mxRectangle width="38" height="28" as="alternateBounds" />
          </mxGeometry>
        </mxCell>
        <mxCell id="VgGNdjIqza_nGkoxZU1C-427" value="-1" style="shape=partialRectangle;html=1;whiteSpace=wrap;connectable=0;overflow=hidden;fillColor=none;top=0;left=0;bottom=0;right=0;pointerEvents=1;rounded=0;glass=0;fontFamily=Helvetica;fontSize=9;fontColor=default;startSize=30;strokeColor=#c0c0c0;shadow=1;fontStyle=0" parent="VgGNdjIqza_nGkoxZU1C-420" vertex="1">
          <mxGeometry x="270" width="39" height="28" as="geometry">
            <mxRectangle width="39" height="28" as="alternateBounds" />
          </mxGeometry>
        </mxCell>
        <mxCell id="VgGNdjIqza_nGkoxZU1C-278" value="" style="shape=tableRow;horizontal=0;startSize=0;swimlaneHead=0;swimlaneBody=0;top=0;left=0;bottom=0;right=0;collapsible=0;dropTarget=0;fillColor=none;points=[[0,0.5],[1,0.5]];portConstraint=eastwest;rounded=0;glass=0;fontFamily=Helvetica;fontSize=9;fontColor=default;strokeColor=#c0c0c0;html=1;shadow=1;fontStyle=0" parent="VgGNdjIqza_nGkoxZU1C-379" vertex="1">
          <mxGeometry y="142" width="309" height="28" as="geometry" />
        </mxCell>
        <mxCell id="VgGNdjIqza_nGkoxZU1C-485" value="..." style="shape=partialRectangle;html=1;whiteSpace=wrap;connectable=0;overflow=hidden;fillColor=none;top=0;left=0;bottom=0;right=0;pointerEvents=1;rounded=0;glass=0;fontFamily=Helvetica;fontSize=9;fontColor=default;startSize=30;strokeColor=#c0c0c0;shadow=1;fontStyle=0" parent="VgGNdjIqza_nGkoxZU1C-278" vertex="1">
          <mxGeometry width="39" height="28" as="geometry">
            <mxRectangle width="39" height="28" as="alternateBounds" />
          </mxGeometry>
        </mxCell>
        <mxCell id="VgGNdjIqza_nGkoxZU1C-279" value="..." style="shape=partialRectangle;html=1;whiteSpace=wrap;connectable=0;overflow=hidden;fillColor=none;top=0;left=0;bottom=0;right=0;pointerEvents=1;rounded=0;glass=0;fontFamily=Helvetica;fontSize=9;fontColor=default;startSize=30;strokeColor=#c0c0c0;shadow=1;fontStyle=0" parent="VgGNdjIqza_nGkoxZU1C-278" vertex="1">
          <mxGeometry x="39" width="39" height="28" as="geometry">
            <mxRectangle width="39" height="28" as="alternateBounds" />
          </mxGeometry>
        </mxCell>
        <mxCell id="VgGNdjIqza_nGkoxZU1C-280" value="..." style="shape=partialRectangle;html=1;whiteSpace=wrap;connectable=0;overflow=hidden;fillColor=none;top=0;left=0;bottom=0;right=0;pointerEvents=1;rounded=0;glass=0;fontFamily=Helvetica;fontSize=9;fontColor=default;startSize=30;strokeColor=#c0c0c0;shadow=1;fontStyle=0" parent="VgGNdjIqza_nGkoxZU1C-278" vertex="1">
          <mxGeometry x="78" width="38" height="28" as="geometry">
            <mxRectangle width="38" height="28" as="alternateBounds" />
          </mxGeometry>
        </mxCell>
        <mxCell id="VgGNdjIqza_nGkoxZU1C-281" value="..." style="shape=partialRectangle;html=1;whiteSpace=wrap;connectable=0;overflow=hidden;fillColor=none;top=0;left=0;bottom=0;right=0;pointerEvents=1;rounded=0;glass=0;fontFamily=Helvetica;fontSize=9;fontColor=default;startSize=30;strokeColor=#c0c0c0;shadow=1;fontStyle=0" parent="VgGNdjIqza_nGkoxZU1C-278" vertex="1">
          <mxGeometry x="116" width="39" height="28" as="geometry">
            <mxRectangle width="39" height="28" as="alternateBounds" />
          </mxGeometry>
        </mxCell>
        <mxCell id="VgGNdjIqza_nGkoxZU1C-282" value="..." style="shape=partialRectangle;html=1;whiteSpace=wrap;connectable=0;overflow=hidden;fillColor=none;top=0;left=0;bottom=0;right=0;pointerEvents=1;rounded=0;glass=0;fontFamily=Helvetica;fontSize=9;fontColor=default;startSize=30;strokeColor=#c0c0c0;shadow=1;fontStyle=0" parent="VgGNdjIqza_nGkoxZU1C-278" vertex="1">
          <mxGeometry x="155" width="38" height="28" as="geometry">
            <mxRectangle width="38" height="28" as="alternateBounds" />
          </mxGeometry>
        </mxCell>
        <mxCell id="VgGNdjIqza_nGkoxZU1C-283" value="..." style="shape=partialRectangle;html=1;whiteSpace=wrap;connectable=0;overflow=hidden;fillColor=none;top=0;left=0;bottom=0;right=0;pointerEvents=1;rounded=0;glass=0;fontFamily=Helvetica;fontSize=9;fontColor=default;startSize=30;strokeColor=#c0c0c0;shadow=1;fontStyle=0" parent="VgGNdjIqza_nGkoxZU1C-278" vertex="1">
          <mxGeometry x="193" width="39" height="28" as="geometry">
            <mxRectangle width="39" height="28" as="alternateBounds" />
          </mxGeometry>
        </mxCell>
        <mxCell id="VgGNdjIqza_nGkoxZU1C-284" value="..." style="shape=partialRectangle;html=1;whiteSpace=wrap;connectable=0;overflow=hidden;fillColor=none;top=0;left=0;bottom=0;right=0;pointerEvents=1;rounded=0;glass=0;fontFamily=Helvetica;fontSize=9;fontColor=default;startSize=30;strokeColor=#c0c0c0;shadow=1;fontStyle=0" parent="VgGNdjIqza_nGkoxZU1C-278" vertex="1">
          <mxGeometry x="232" width="38" height="28" as="geometry">
            <mxRectangle width="38" height="28" as="alternateBounds" />
          </mxGeometry>
        </mxCell>
        <mxCell id="VgGNdjIqza_nGkoxZU1C-285" value="..." style="shape=partialRectangle;html=1;whiteSpace=wrap;connectable=0;overflow=hidden;fillColor=none;top=0;left=0;bottom=0;right=0;pointerEvents=1;rounded=0;glass=0;fontFamily=Helvetica;fontSize=9;fontColor=default;startSize=30;strokeColor=#c0c0c0;shadow=1;fontStyle=0" parent="VgGNdjIqza_nGkoxZU1C-278" vertex="1">
          <mxGeometry x="270" width="39" height="28" as="geometry">
            <mxRectangle width="39" height="28" as="alternateBounds" />
          </mxGeometry>
        </mxCell>
        <mxCell id="VgGNdjIqza_nGkoxZU1C-319" style="shape=tableRow;horizontal=0;startSize=0;swimlaneHead=0;swimlaneBody=0;top=0;left=0;bottom=0;right=0;collapsible=0;dropTarget=0;fillColor=none;points=[[0,0.5],[1,0.5]];portConstraint=eastwest;rounded=0;glass=0;fontFamily=Helvetica;fontSize=9;fontColor=default;strokeColor=#c0c0c0;html=1;shadow=1;fontStyle=0" parent="VgGNdjIqza_nGkoxZU1C-379" vertex="1">
          <mxGeometry y="170" width="309" height="28" as="geometry" />
        </mxCell>
        <mxCell id="VgGNdjIqza_nGkoxZU1C-486" value="12100" style="shape=partialRectangle;html=1;whiteSpace=wrap;connectable=0;overflow=hidden;fillColor=none;top=0;left=0;bottom=0;right=0;pointerEvents=1;rounded=0;glass=0;fontFamily=Helvetica;fontSize=9;fontColor=default;startSize=30;strokeColor=#c0c0c0;shadow=1;fontStyle=0" parent="VgGNdjIqza_nGkoxZU1C-319" vertex="1">
          <mxGeometry width="39" height="28" as="geometry">
            <mxRectangle width="39" height="28" as="alternateBounds" />
          </mxGeometry>
        </mxCell>
        <mxCell id="VgGNdjIqza_nGkoxZU1C-320" value="2" style="shape=partialRectangle;html=1;whiteSpace=wrap;connectable=0;overflow=hidden;fillColor=none;top=0;left=0;bottom=0;right=0;pointerEvents=1;rounded=0;glass=0;fontFamily=Helvetica;fontSize=9;fontColor=default;startSize=30;strokeColor=#c0c0c0;shadow=1;fontStyle=0" parent="VgGNdjIqza_nGkoxZU1C-319" vertex="1">
          <mxGeometry x="39" width="39" height="28" as="geometry">
            <mxRectangle width="39" height="28" as="alternateBounds" />
          </mxGeometry>
        </mxCell>
        <mxCell id="VgGNdjIqza_nGkoxZU1C-321" value="31" style="shape=partialRectangle;html=1;whiteSpace=wrap;connectable=0;overflow=hidden;fillColor=none;top=0;left=0;bottom=0;right=0;pointerEvents=1;rounded=0;glass=0;fontFamily=Helvetica;fontSize=9;fontColor=default;startSize=30;strokeColor=#c0c0c0;shadow=1;fontStyle=0" parent="VgGNdjIqza_nGkoxZU1C-319" vertex="1">
          <mxGeometry x="78" width="38" height="28" as="geometry">
            <mxRectangle width="38" height="28" as="alternateBounds" />
          </mxGeometry>
        </mxCell>
        <mxCell id="VgGNdjIqza_nGkoxZU1C-322" value="155" style="shape=partialRectangle;html=1;whiteSpace=wrap;connectable=0;overflow=hidden;fillColor=none;top=0;left=0;bottom=0;right=0;pointerEvents=1;rounded=0;glass=0;fontFamily=Helvetica;fontSize=9;fontColor=default;startSize=30;strokeColor=#c0c0c0;shadow=1;fontStyle=0" parent="VgGNdjIqza_nGkoxZU1C-319" vertex="1">
          <mxGeometry x="116" width="39" height="28" as="geometry">
            <mxRectangle width="39" height="28" as="alternateBounds" />
          </mxGeometry>
        </mxCell>
        <mxCell id="VgGNdjIqza_nGkoxZU1C-323" value="86" style="shape=partialRectangle;html=1;whiteSpace=wrap;connectable=0;overflow=hidden;fillColor=none;top=0;left=0;bottom=0;right=0;pointerEvents=1;rounded=0;glass=0;fontFamily=Helvetica;fontSize=6;fontColor=default;startSize=30;strokeColor=#c0c0c0;shadow=1;fontStyle=0" parent="VgGNdjIqza_nGkoxZU1C-319" vertex="1">
          <mxGeometry x="155" width="38" height="28" as="geometry">
            <mxRectangle width="38" height="28" as="alternateBounds" />
          </mxGeometry>
        </mxCell>
        <mxCell id="VgGNdjIqza_nGkoxZU1C-324" value="3" style="shape=partialRectangle;html=1;whiteSpace=wrap;connectable=0;overflow=hidden;fillColor=none;top=0;left=0;bottom=0;right=0;pointerEvents=1;rounded=0;glass=0;fontFamily=Helvetica;fontSize=9;fontColor=default;startSize=30;strokeColor=#c0c0c0;shadow=1;fontStyle=0" parent="VgGNdjIqza_nGkoxZU1C-319" vertex="1">
          <mxGeometry x="193" width="39" height="28" as="geometry">
            <mxRectangle width="39" height="28" as="alternateBounds" />
          </mxGeometry>
        </mxCell>
        <mxCell id="VgGNdjIqza_nGkoxZU1C-325" value="..." style="shape=partialRectangle;html=1;whiteSpace=wrap;connectable=0;overflow=hidden;fillColor=none;top=0;left=0;bottom=0;right=0;pointerEvents=1;rounded=0;glass=0;fontFamily=Helvetica;fontSize=9;fontColor=default;startSize=30;strokeColor=#c0c0c0;shadow=1;fontStyle=0" parent="VgGNdjIqza_nGkoxZU1C-319" vertex="1">
          <mxGeometry x="232" width="38" height="28" as="geometry">
            <mxRectangle width="38" height="28" as="alternateBounds" />
          </mxGeometry>
        </mxCell>
        <mxCell id="VgGNdjIqza_nGkoxZU1C-326" value="-1" style="shape=partialRectangle;html=1;whiteSpace=wrap;connectable=0;overflow=hidden;fillColor=none;top=0;left=0;bottom=0;right=0;pointerEvents=1;rounded=0;glass=0;fontFamily=Helvetica;fontSize=9;fontColor=default;startSize=30;strokeColor=#c0c0c0;shadow=1;fontStyle=0" parent="VgGNdjIqza_nGkoxZU1C-319" vertex="1">
          <mxGeometry x="270" width="39" height="28" as="geometry">
            <mxRectangle width="39" height="28" as="alternateBounds" />
          </mxGeometry>
        </mxCell>
        <mxCell id="VgGNdjIqza_nGkoxZU1C-488" value="" style="shape=flexArrow;endArrow=classic;html=1;rounded=0;fontFamily=Helvetica;fontSize=9;fontColor=default;startSize=0;endWidth=24;endSize=8;width=10;strokeWidth=2;fontStyle=0" parent="1" edge="1">
          <mxGeometry width="50" height="50" relative="1" as="geometry">
            <mxPoint x="-640" y="-479.5" as="sourcePoint" />
            <mxPoint x="-559" y="-480" as="targetPoint" />
          </mxGeometry>
        </mxCell>
        <mxCell id="VgGNdjIqza_nGkoxZU1C-747" value="&lt;font style=&quot;font-size: 8px;&quot;&gt;SEX :1&lt;br style=&quot;font-size: 8px;&quot;&gt;0.067&lt;/font&gt;" style="ellipse;whiteSpace=wrap;html=1;aspect=fixed;fontFamily=Helvetica;fontSize=8;fontColor=#000000;strokeColor=#000000;fillColor=#cc8a56;strokeWidth=2;fontStyle=0" parent="1" vertex="1">
          <mxGeometry x="-484.5" y="-315" width="50" height="50" as="geometry" />
        </mxCell>
        <mxCell id="VgGNdjIqza_nGkoxZU1C-751" value="&lt;font style=&quot;font-size: 8px;&quot;&gt;AGE：65&lt;br style=&quot;font-size: 8px;&quot;&gt;0.731&lt;/font&gt;" style="ellipse;whiteSpace=wrap;html=1;aspect=fixed;fontFamily=Helvetica;fontSize=8;fontColor=#000000;strokeColor=#000000;fillColor=#cc8a56;strokeWidth=2;fontStyle=0" parent="1" vertex="1">
          <mxGeometry x="-404.5" y="-315" width="50" height="50" as="geometry" />
        </mxCell>
        <mxCell id="VgGNdjIqza_nGkoxZU1C-752" value="&lt;font style=&quot;font-size: 8px;&quot;&gt;HEIGHT：160&lt;br style=&quot;font-size: 8px;&quot;&gt;0.05&lt;/font&gt;" style="ellipse;whiteSpace=wrap;html=1;aspect=fixed;fontFamily=Helvetica;fontSize=8;fontColor=#000000;strokeColor=#000000;fillColor=#cc8a56;strokeWidth=2;fontStyle=0" parent="1" vertex="1">
          <mxGeometry x="-324.5" y="-315" width="50" height="50" as="geometry" />
        </mxCell>
        <mxCell id="VgGNdjIqza_nGkoxZU1C-753" value="&lt;font style=&quot;font-size: 8px;&quot;&gt;SICK：0.842&lt;/font&gt;" style="ellipse;whiteSpace=wrap;html=1;aspect=fixed;fontFamily=Helvetica;fontSize=8;fontColor=#000000;strokeColor=#000000;fillColor=#ebe5d9;strokeWidth=2;fontStyle=0" parent="1" vertex="1">
          <mxGeometry x="-404.5" y="-216" width="50" height="50" as="geometry" />
        </mxCell>
        <mxCell id="VgGNdjIqza_nGkoxZU1C-754" value="&lt;font style=&quot;font-size: 8px;&quot;&gt;WEIGHT：170&lt;br style=&quot;font-size: 8px;&quot;&gt;0.119&lt;/font&gt;" style="ellipse;whiteSpace=wrap;html=1;aspect=fixed;fontFamily=Helvetica;fontSize=8;fontColor=#000000;strokeColor=#000000;fillColor=#cc8a56;strokeWidth=2;fontStyle=0" parent="1" vertex="1">
          <mxGeometry x="-324.5" y="-216" width="50" height="50" as="geometry" />
        </mxCell>
        <mxCell id="VgGNdjIqza_nGkoxZU1C-755" value="&lt;font style=&quot;font-size: 8px;&quot;&gt;SMOKE：0&lt;br style=&quot;font-size: 8px;&quot;&gt;-0.125&lt;/font&gt;" style="ellipse;whiteSpace=wrap;html=1;aspect=fixed;fontFamily=Helvetica;fontSize=8;fontColor=#000000;strokeColor=#000000;fillColor=#14b09b;strokeWidth=2;fontStyle=0" parent="1" vertex="1">
          <mxGeometry x="-484.5" y="-216" width="50" height="50" as="geometry" />
        </mxCell>
        <mxCell id="VgGNdjIqza_nGkoxZU1C-756" value="" style="endArrow=classic;html=1;rounded=0;fontFamily=Helvetica;fontSize=8;fontColor=#000000;entryX=0.5;entryY=0;entryDx=0;entryDy=0;exitX=0.5;exitY=1;exitDx=0;exitDy=0;strokeWidth=2;fontStyle=0" parent="1" source="VgGNdjIqza_nGkoxZU1C-751" target="VgGNdjIqza_nGkoxZU1C-753" edge="1">
          <mxGeometry width="50" height="50" relative="1" as="geometry">
            <mxPoint x="-384.5" y="-265" as="sourcePoint" />
            <mxPoint x="-334.5" y="-315" as="targetPoint" />
          </mxGeometry>
        </mxCell>
        <mxCell id="VgGNdjIqza_nGkoxZU1C-757" value="" style="endArrow=classic;html=1;rounded=0;fontFamily=Helvetica;fontSize=8;fontColor=#000000;entryX=1;entryY=0.5;entryDx=0;entryDy=0;strokeWidth=2;fontStyle=0" parent="1" target="VgGNdjIqza_nGkoxZU1C-747" edge="1">
          <mxGeometry width="50" height="50" relative="1" as="geometry">
            <mxPoint x="-404.5" y="-290" as="sourcePoint" />
            <mxPoint x="-354.5" y="-340" as="targetPoint" />
          </mxGeometry>
        </mxCell>
        <mxCell id="VgGNdjIqza_nGkoxZU1C-758" value="" style="endArrow=classic;html=1;rounded=0;fontFamily=Helvetica;fontSize=8;fontColor=#000000;entryX=1;entryY=0;entryDx=0;entryDy=0;exitX=0;exitY=1;exitDx=0;exitDy=0;strokeWidth=2;fontStyle=0" parent="1" source="VgGNdjIqza_nGkoxZU1C-752" target="VgGNdjIqza_nGkoxZU1C-753" edge="1">
          <mxGeometry width="50" height="50" relative="1" as="geometry">
            <mxPoint x="-369.5" y="-240" as="sourcePoint" />
            <mxPoint x="-319.5" y="-290" as="targetPoint" />
          </mxGeometry>
        </mxCell>
        <mxCell id="VgGNdjIqza_nGkoxZU1C-759" value="" style="endArrow=classic;html=1;rounded=0;fontFamily=Helvetica;fontSize=8;fontColor=#000000;entryX=0.5;entryY=0;entryDx=0;entryDy=0;exitX=0.5;exitY=1;exitDx=0;exitDy=0;strokeWidth=2;fontStyle=0" parent="1" source="VgGNdjIqza_nGkoxZU1C-752" target="VgGNdjIqza_nGkoxZU1C-754" edge="1">
          <mxGeometry width="50" height="50" relative="1" as="geometry">
            <mxPoint x="-304.5" y="-250" as="sourcePoint" />
            <mxPoint x="-254.5" y="-300" as="targetPoint" />
          </mxGeometry>
        </mxCell>
        <mxCell id="VgGNdjIqza_nGkoxZU1C-760" value="" style="endArrow=classic;html=1;rounded=0;fontFamily=Helvetica;fontSize=8;fontColor=#000000;entryX=0;entryY=0.5;entryDx=0;entryDy=0;exitX=1;exitY=0.5;exitDx=0;exitDy=0;strokeWidth=2;fontStyle=0" parent="1" source="VgGNdjIqza_nGkoxZU1C-755" target="VgGNdjIqza_nGkoxZU1C-753" edge="1">
          <mxGeometry width="50" height="50" relative="1" as="geometry">
            <mxPoint x="-434.5" y="-181" as="sourcePoint" />
            <mxPoint x="-384.5" y="-231" as="targetPoint" />
          </mxGeometry>
        </mxCell>
        <mxCell id="VgGNdjIqza_nGkoxZU1C-761" value="" style="endArrow=classic;html=1;rounded=0;fontFamily=Helvetica;fontSize=8;fontColor=#000000;entryX=0;entryY=0;entryDx=0;entryDy=0;exitX=1;exitY=1;exitDx=0;exitDy=0;strokeWidth=2;fontStyle=0" parent="1" source="VgGNdjIqza_nGkoxZU1C-747" target="VgGNdjIqza_nGkoxZU1C-753" edge="1">
          <mxGeometry width="50" height="50" relative="1" as="geometry">
            <mxPoint x="-464.5" y="-260" as="sourcePoint" />
            <mxPoint x="-414.5" y="-310" as="targetPoint" />
          </mxGeometry>
        </mxCell>
        <mxCell id="VgGNdjIqza_nGkoxZU1C-762" value="" style="endArrow=classic;html=1;rounded=0;fontFamily=Helvetica;fontSize=8;fontColor=#000000;entryX=1;entryY=0.5;entryDx=0;entryDy=0;strokeWidth=2;fontStyle=0" parent="1" target="VgGNdjIqza_nGkoxZU1C-753" edge="1">
          <mxGeometry width="50" height="50" relative="1" as="geometry">
            <mxPoint x="-324.5" y="-190" as="sourcePoint" />
            <mxPoint x="-274.5" y="-240" as="targetPoint" />
          </mxGeometry>
        </mxCell>
        <mxCell id="5vdNhDTqxfDxzcNArzGM-1" value="(b)" style="text;html=1;align=center;verticalAlign=middle;resizable=0;points=[];autosize=1;strokeColor=none;fillColor=none;strokeWidth=4;fontSize=12;fontStyle=0" parent="1" vertex="1">
          <mxGeometry x="-399.5" y="-405" width="40" height="30" as="geometry" />
        </mxCell>
        <mxCell id="5vdNhDTqxfDxzcNArzGM-3" value="(c)" style="text;html=1;align=center;verticalAlign=middle;resizable=0;points=[];autosize=1;strokeColor=none;fillColor=none;fontSize=12;strokeWidth=4;fontStyle=0" parent="1" vertex="1">
          <mxGeometry x="-41.25" y="-405" width="40" height="30" as="geometry" />
        </mxCell>
        <mxCell id="5vdNhDTqxfDxzcNArzGM-4" value="(d)" style="text;html=1;align=center;verticalAlign=middle;resizable=0;points=[];autosize=1;strokeColor=none;fillColor=none;fontSize=12;strokeWidth=4;fontStyle=0" parent="1" vertex="1">
          <mxGeometry x="-41.25" y="-155" width="40" height="30" as="geometry" />
        </mxCell>
        <mxCell id="5vdNhDTqxfDxzcNArzGM-5" value="(e)" style="text;html=1;align=center;verticalAlign=middle;resizable=0;points=[];autosize=1;strokeColor=none;fillColor=none;strokeWidth=4;fontSize=12;fontStyle=0" parent="1" vertex="1">
          <mxGeometry x="-399.5" y="-155" width="40" height="30" as="geometry" />
        </mxCell>
        <mxCell id="wTDH9LHfZkuPYAOU6p1M-11" value="（a）" style="text;html=1;align=center;verticalAlign=middle;resizable=0;points=[];autosize=1;strokeColor=none;fillColor=none;strokeWidth=4;fontSize=12;fontStyle=0" parent="1" vertex="1">
          <mxGeometry x="-760" y="-405" width="50" height="30" as="geometry" />
        </mxCell>
        <mxCell id="lo2OrRyrxvKk0OBogVc3-3" value="" style="shape=card;whiteSpace=wrap;html=1;direction=south;fontSize=9;fillColor=#ffffff;strokeColor=#000000;startSize=30;rounded=1;glass=0;gradientColor=none;shadow=0;strokeWidth=2;fontStyle=0" vertex="1" parent="1">
          <mxGeometry x="-800" y="-543" width="130" height="104" as="geometry" />
        </mxCell>
        <mxCell id="lo2OrRyrxvKk0OBogVc3-4" value="" style="endArrow=none;html=1;rounded=0;strokeWidth=2;fontStyle=0" edge="1" parent="1">
          <mxGeometry width="50" height="50" relative="1" as="geometry">
            <mxPoint x="-780" y="-516.42" as="sourcePoint" />
            <mxPoint x="-750" y="-516.42" as="targetPoint" />
          </mxGeometry>
        </mxCell>
        <mxCell id="lo2OrRyrxvKk0OBogVc3-6" value="" style="endArrow=none;html=1;rounded=0;strokeWidth=2;fontStyle=0" edge="1" parent="1">
          <mxGeometry width="50" height="50" relative="1" as="geometry">
            <mxPoint x="-780" y="-468" as="sourcePoint" />
            <mxPoint x="-720" y="-468" as="targetPoint" />
          </mxGeometry>
        </mxCell>
        <mxCell id="lo2OrRyrxvKk0OBogVc3-8" value="" style="verticalLabelPosition=bottom;verticalAlign=top;html=1;shape=mxgraph.basic.tick;strokeWidth=2;fontStyle=0" vertex="1" parent="1">
          <mxGeometry x="-710" y="-487" width="25" height="28" as="geometry" />
        </mxCell>
        <mxCell id="lo2OrRyrxvKk0OBogVc3-9" value="" style="endArrow=none;html=1;rounded=0;strokeWidth=2;fontStyle=0" edge="1" parent="1">
          <mxGeometry width="50" height="50" relative="1" as="geometry">
            <mxPoint x="-780" y="-491.42" as="sourcePoint" />
            <mxPoint x="-720" y="-491.42" as="targetPoint" />
          </mxGeometry>
        </mxCell>
        <mxCell id="lo2OrRyrxvKk0OBogVc3-12" value="&lt;font style=&quot;font-size: 10px;&quot;&gt;SEX&amp;nbsp;&lt;/font&gt;" style="ellipse;whiteSpace=wrap;html=1;aspect=fixed;fontFamily=Helvetica;fontSize=10;strokeWidth=2;fontStyle=0" vertex="1" parent="1">
          <mxGeometry x="-126.25" y="-315" width="50" height="50" as="geometry" />
        </mxCell>
        <mxCell id="lo2OrRyrxvKk0OBogVc3-13" value="&lt;font style=&quot;font-size: 10px;&quot;&gt;AGE&lt;/font&gt;" style="ellipse;whiteSpace=wrap;html=1;aspect=fixed;fontFamily=Helvetica;fontSize=10;strokeWidth=2;fontStyle=0" vertex="1" parent="1">
          <mxGeometry x="-46.25" y="-315" width="50" height="50" as="geometry" />
        </mxCell>
        <mxCell id="lo2OrRyrxvKk0OBogVc3-14" value="&lt;font style=&quot;font-size: 10px;&quot;&gt;HEIGHT&lt;/font&gt;" style="ellipse;whiteSpace=wrap;html=1;aspect=fixed;fontFamily=Helvetica;fontSize=10;strokeWidth=2;fontStyle=0" vertex="1" parent="1">
          <mxGeometry x="33.75" y="-315" width="50" height="50" as="geometry" />
        </mxCell>
        <mxCell id="lo2OrRyrxvKk0OBogVc3-15" value="&lt;font style=&quot;font-size: 10px;&quot;&gt;SICK&lt;/font&gt;" style="ellipse;whiteSpace=wrap;html=1;aspect=fixed;fontFamily=Helvetica;fontSize=10;strokeWidth=2;fontStyle=0" vertex="1" parent="1">
          <mxGeometry x="-46.25" y="-216" width="50" height="50" as="geometry" />
        </mxCell>
        <mxCell id="lo2OrRyrxvKk0OBogVc3-16" value="&lt;font style=&quot;font-size: 10px;&quot;&gt;WEIGHT&lt;/font&gt;" style="ellipse;whiteSpace=wrap;html=1;aspect=fixed;fontFamily=Helvetica;fontSize=10;strokeWidth=2;fontStyle=0" vertex="1" parent="1">
          <mxGeometry x="33.75" y="-216" width="50" height="50" as="geometry" />
        </mxCell>
        <mxCell id="lo2OrRyrxvKk0OBogVc3-17" value="&lt;font style=&quot;font-size: 10px;&quot;&gt;SMOKE&lt;/font&gt;" style="ellipse;whiteSpace=wrap;html=1;aspect=fixed;fontFamily=Helvetica;fontSize=10;strokeWidth=2;fontStyle=0" vertex="1" parent="1">
          <mxGeometry x="-126.25" y="-216" width="50" height="50" as="geometry" />
        </mxCell>
        <mxCell id="lo2OrRyrxvKk0OBogVc3-18" value="" style="endArrow=classic;html=1;rounded=0;fontFamily=Helvetica;fontSize=10;fontColor=#000000;entryX=0.5;entryY=0;entryDx=0;entryDy=0;exitX=0.5;exitY=1;exitDx=0;exitDy=0;strokeWidth=2;fontStyle=0" edge="1" parent="1" source="lo2OrRyrxvKk0OBogVc3-13" target="lo2OrRyrxvKk0OBogVc3-15">
          <mxGeometry width="50" height="50" relative="1" as="geometry">
            <mxPoint x="-26.25" y="-265" as="sourcePoint" />
            <mxPoint x="23.75" y="-315" as="targetPoint" />
          </mxGeometry>
        </mxCell>
        <mxCell id="lo2OrRyrxvKk0OBogVc3-19" value="" style="endArrow=classic;html=1;rounded=0;fontFamily=Helvetica;fontSize=10;fontColor=#000000;entryX=1;entryY=0.5;entryDx=0;entryDy=0;strokeWidth=2;fontStyle=0" edge="1" parent="1" target="lo2OrRyrxvKk0OBogVc3-12">
          <mxGeometry width="50" height="50" relative="1" as="geometry">
            <mxPoint x="-46.25" y="-290" as="sourcePoint" />
            <mxPoint x="3.75" y="-340" as="targetPoint" />
          </mxGeometry>
        </mxCell>
        <mxCell id="lo2OrRyrxvKk0OBogVc3-20" value="" style="endArrow=classic;html=1;rounded=0;fontFamily=Helvetica;fontSize=10;fontColor=#000000;entryX=1;entryY=0;entryDx=0;entryDy=0;exitX=0;exitY=1;exitDx=0;exitDy=0;strokeWidth=2;fontStyle=0" edge="1" parent="1" source="lo2OrRyrxvKk0OBogVc3-14" target="lo2OrRyrxvKk0OBogVc3-15">
          <mxGeometry width="50" height="50" relative="1" as="geometry">
            <mxPoint x="-11.25" y="-240" as="sourcePoint" />
            <mxPoint x="38.75" y="-290" as="targetPoint" />
          </mxGeometry>
        </mxCell>
        <mxCell id="lo2OrRyrxvKk0OBogVc3-21" value="" style="endArrow=classic;html=1;rounded=0;fontFamily=Helvetica;fontSize=10;fontColor=#000000;entryX=0.5;entryY=0;entryDx=0;entryDy=0;exitX=0.5;exitY=1;exitDx=0;exitDy=0;strokeWidth=2;fontStyle=0" edge="1" parent="1" source="lo2OrRyrxvKk0OBogVc3-14" target="lo2OrRyrxvKk0OBogVc3-16">
          <mxGeometry width="50" height="50" relative="1" as="geometry">
            <mxPoint x="53.75" y="-250" as="sourcePoint" />
            <mxPoint x="103.75" y="-300" as="targetPoint" />
          </mxGeometry>
        </mxCell>
        <mxCell id="lo2OrRyrxvKk0OBogVc3-22" value="" style="endArrow=classic;html=1;rounded=0;fontFamily=Helvetica;fontSize=10;fontColor=#000000;entryX=0;entryY=0.5;entryDx=0;entryDy=0;exitX=1;exitY=0.5;exitDx=0;exitDy=0;strokeWidth=2;fontStyle=0" edge="1" parent="1" source="lo2OrRyrxvKk0OBogVc3-17" target="lo2OrRyrxvKk0OBogVc3-15">
          <mxGeometry width="50" height="50" relative="1" as="geometry">
            <mxPoint x="-76.25" y="-181" as="sourcePoint" />
            <mxPoint x="-26.25" y="-231" as="targetPoint" />
          </mxGeometry>
        </mxCell>
        <mxCell id="lo2OrRyrxvKk0OBogVc3-23" value="" style="endArrow=classic;html=1;rounded=0;fontFamily=Helvetica;fontSize=10;fontColor=#000000;entryX=0;entryY=0;entryDx=0;entryDy=0;exitX=1;exitY=1;exitDx=0;exitDy=0;strokeWidth=2;fontStyle=0" edge="1" parent="1" source="lo2OrRyrxvKk0OBogVc3-12" target="lo2OrRyrxvKk0OBogVc3-15">
          <mxGeometry width="50" height="50" relative="1" as="geometry">
            <mxPoint x="-106.25" y="-260" as="sourcePoint" />
            <mxPoint x="-56.25" y="-310" as="targetPoint" />
          </mxGeometry>
        </mxCell>
        <mxCell id="lo2OrRyrxvKk0OBogVc3-24" value="" style="endArrow=classic;html=1;rounded=0;fontFamily=Helvetica;fontSize=10;fontColor=#000000;entryX=1;entryY=0.5;entryDx=0;entryDy=0;strokeWidth=2;fontStyle=0" edge="1" parent="1" target="lo2OrRyrxvKk0OBogVc3-15">
          <mxGeometry width="50" height="50" relative="1" as="geometry">
            <mxPoint x="33.75" y="-190" as="sourcePoint" />
            <mxPoint x="83.75" y="-240" as="targetPoint" />
          </mxGeometry>
        </mxCell>
        <mxCell id="lo2OrRyrxvKk0OBogVc3-25" value="&lt;font style=&quot;font-size: 10px;&quot;&gt;SEX&amp;nbsp;&lt;/font&gt;" style="ellipse;whiteSpace=wrap;html=1;aspect=fixed;fontFamily=Helvetica;fontSize=10;strokeWidth=2;fontStyle=0" vertex="1" parent="1">
          <mxGeometry x="-146.25" y="-565" width="50" height="50" as="geometry" />
        </mxCell>
        <mxCell id="lo2OrRyrxvKk0OBogVc3-26" value="&lt;font style=&quot;font-size: 10px;&quot;&gt;AGE&lt;/font&gt;" style="ellipse;whiteSpace=wrap;html=1;aspect=fixed;fontFamily=Helvetica;fontSize=10;strokeWidth=2;fontStyle=0" vertex="1" parent="1">
          <mxGeometry x="-66.25" y="-565" width="50" height="50" as="geometry" />
        </mxCell>
        <mxCell id="lo2OrRyrxvKk0OBogVc3-27" value="&lt;font style=&quot;font-size: 10px;&quot;&gt;HEIGHT&lt;/font&gt;" style="ellipse;whiteSpace=wrap;html=1;aspect=fixed;fontFamily=Helvetica;fontSize=10;strokeWidth=2;fontStyle=0" vertex="1" parent="1">
          <mxGeometry x="13.75" y="-565" width="50" height="50" as="geometry" />
        </mxCell>
        <mxCell id="lo2OrRyrxvKk0OBogVc3-28" value="&lt;font style=&quot;font-size: 10px;&quot;&gt;SICK&lt;/font&gt;" style="ellipse;whiteSpace=wrap;html=1;aspect=fixed;fontFamily=Helvetica;fontSize=10;strokeWidth=2;fontStyle=0" vertex="1" parent="1">
          <mxGeometry x="-66.25" y="-466" width="50" height="50" as="geometry" />
        </mxCell>
        <mxCell id="lo2OrRyrxvKk0OBogVc3-29" value="&lt;font style=&quot;font-size: 10px;&quot;&gt;WEIGHT&lt;/font&gt;" style="ellipse;whiteSpace=wrap;html=1;aspect=fixed;fontFamily=Helvetica;fontSize=10;strokeWidth=2;fontStyle=0" vertex="1" parent="1">
          <mxGeometry x="13.75" y="-466" width="50" height="50" as="geometry" />
        </mxCell>
        <mxCell id="lo2OrRyrxvKk0OBogVc3-30" value="&lt;font style=&quot;font-size: 10px;&quot;&gt;SMOKE&lt;/font&gt;" style="ellipse;whiteSpace=wrap;html=1;aspect=fixed;fontFamily=Helvetica;fontSize=10;strokeWidth=2;fontStyle=0" vertex="1" parent="1">
          <mxGeometry x="-146.25" y="-466" width="50" height="50" as="geometry" />
        </mxCell>
        <mxCell id="lo2OrRyrxvKk0OBogVc3-31" value="" style="endArrow=classic;html=1;rounded=0;fontFamily=Helvetica;fontSize=10;fontColor=default;entryX=0.5;entryY=0;entryDx=0;entryDy=0;exitX=0.5;exitY=1;exitDx=0;exitDy=0;fillColor=default;strokeWidth=2;fontStyle=0" edge="1" parent="1" source="lo2OrRyrxvKk0OBogVc3-26" target="lo2OrRyrxvKk0OBogVc3-28">
          <mxGeometry width="50" height="50" relative="1" as="geometry">
            <mxPoint x="-46.25" y="-515" as="sourcePoint" />
            <mxPoint x="3.75" y="-565" as="targetPoint" />
          </mxGeometry>
        </mxCell>
        <mxCell id="lo2OrRyrxvKk0OBogVc3-32" value="" style="endArrow=classic;html=1;rounded=0;fontFamily=Helvetica;fontSize=10;fontColor=default;entryX=1;entryY=0.5;entryDx=0;entryDy=0;fillColor=default;strokeWidth=2;fontStyle=0" edge="1" parent="1" target="lo2OrRyrxvKk0OBogVc3-25">
          <mxGeometry width="50" height="50" relative="1" as="geometry">
            <mxPoint x="-66.25" y="-540" as="sourcePoint" />
            <mxPoint x="-16.25" y="-590" as="targetPoint" />
          </mxGeometry>
        </mxCell>
        <mxCell id="lo2OrRyrxvKk0OBogVc3-33" value="" style="endArrow=classic;html=1;rounded=0;fontFamily=Helvetica;fontSize=10;fontColor=default;entryX=1;entryY=0;entryDx=0;entryDy=0;exitX=0;exitY=1;exitDx=0;exitDy=0;fillColor=default;strokeWidth=2;fontStyle=0" edge="1" parent="1" source="lo2OrRyrxvKk0OBogVc3-27" target="lo2OrRyrxvKk0OBogVc3-28">
          <mxGeometry width="50" height="50" relative="1" as="geometry">
            <mxPoint x="-31.25" y="-490" as="sourcePoint" />
            <mxPoint x="18.75" y="-540" as="targetPoint" />
          </mxGeometry>
        </mxCell>
        <mxCell id="lo2OrRyrxvKk0OBogVc3-34" value="" style="endArrow=classic;html=1;rounded=0;fontFamily=Helvetica;fontSize=10;fontColor=#000000;entryX=0.5;entryY=0;entryDx=0;entryDy=0;exitX=0.5;exitY=1;exitDx=0;exitDy=0;strokeWidth=2;fontStyle=0" edge="1" parent="1" source="lo2OrRyrxvKk0OBogVc3-27" target="lo2OrRyrxvKk0OBogVc3-29">
          <mxGeometry width="50" height="50" relative="1" as="geometry">
            <mxPoint x="33.75" y="-500" as="sourcePoint" />
            <mxPoint x="83.75" y="-550" as="targetPoint" />
          </mxGeometry>
        </mxCell>
        <mxCell id="lo2OrRyrxvKk0OBogVc3-35" value="" style="endArrow=classic;html=1;rounded=0;fontFamily=Helvetica;fontSize=10;fontColor=default;entryX=0;entryY=0.5;entryDx=0;entryDy=0;exitX=1;exitY=0.5;exitDx=0;exitDy=0;fillColor=default;strokeWidth=2;fontStyle=0" edge="1" parent="1" source="lo2OrRyrxvKk0OBogVc3-30" target="lo2OrRyrxvKk0OBogVc3-28">
          <mxGeometry width="50" height="50" relative="1" as="geometry">
            <mxPoint x="-96.25" y="-431" as="sourcePoint" />
            <mxPoint x="-46.25" y="-481" as="targetPoint" />
          </mxGeometry>
        </mxCell>
        <mxCell id="lo2OrRyrxvKk0OBogVc3-36" value="" style="endArrow=classic;html=1;rounded=0;fontFamily=Helvetica;fontSize=10;fontColor=default;entryX=0;entryY=0;entryDx=0;entryDy=0;exitX=1;exitY=1;exitDx=0;exitDy=0;fillColor=default;strokeWidth=2;fontStyle=0" edge="1" parent="1" source="lo2OrRyrxvKk0OBogVc3-25" target="lo2OrRyrxvKk0OBogVc3-28">
          <mxGeometry width="50" height="50" relative="1" as="geometry">
            <mxPoint x="-126.25" y="-510" as="sourcePoint" />
            <mxPoint x="-76.25" y="-560" as="targetPoint" />
          </mxGeometry>
        </mxCell>
        <mxCell id="lo2OrRyrxvKk0OBogVc3-37" value="" style="endArrow=classic;html=1;rounded=0;fontFamily=Helvetica;fontSize=10;fontColor=default;entryX=1;entryY=0.5;entryDx=0;entryDy=0;fillColor=default;strokeWidth=2;fontStyle=0" edge="1" parent="1" target="lo2OrRyrxvKk0OBogVc3-28">
          <mxGeometry width="50" height="50" relative="1" as="geometry">
            <mxPoint x="13.75" y="-440" as="sourcePoint" />
            <mxPoint x="63.75" y="-490" as="targetPoint" />
          </mxGeometry>
        </mxCell>
        <mxCell id="lo2OrRyrxvKk0OBogVc3-39" value="&lt;font style=&quot;font-size: 10px;&quot;&gt;BMI&lt;/font&gt;" style="ellipse;whiteSpace=wrap;html=1;aspect=fixed;fontFamily=Helvetica;fontSize=10;strokeWidth=2;fontStyle=0" vertex="1" parent="1">
          <mxGeometry x="83.75" y="-516" width="50" height="50" as="geometry" />
        </mxCell>
        <mxCell id="lo2OrRyrxvKk0OBogVc3-40" value="&lt;font style=&quot;font-size: 10px;&quot;&gt;MARITAL&lt;/font&gt;" style="ellipse;whiteSpace=wrap;html=1;aspect=fixed;fontFamily=Helvetica;fontSize=10;strokeWidth=2;fontStyle=0" vertex="1" parent="1">
          <mxGeometry x="-66.25" y="-646" width="50" height="50" as="geometry" />
        </mxCell>
        <mxCell id="lo2OrRyrxvKk0OBogVc3-42" value="" style="ellipse;whiteSpace=wrap;html=1;aspect=fixed;fontFamily=Helvetica;fontSize=10;dashed=1;shadow=0;strokeWidth=2;fontStyle=0" vertex="1" parent="1">
          <mxGeometry x="38.75" y="-645" width="50" height="50" as="geometry" />
        </mxCell>
        <mxCell id="lo2OrRyrxvKk0OBogVc3-43" value="" style="ellipse;whiteSpace=wrap;html=1;aspect=fixed;fontFamily=Helvetica;fontSize=10;dashed=1;shadow=0;strokeWidth=2;fontStyle=0" vertex="1" parent="1">
          <mxGeometry x="103.75" y="-695" width="50" height="50" as="geometry" />
        </mxCell>
        <mxCell id="lo2OrRyrxvKk0OBogVc3-44" value="" style="ellipse;whiteSpace=wrap;html=1;aspect=fixed;fontFamily=Helvetica;fontSize=10;dashed=1;shadow=0;strokeWidth=2;fontStyle=0" vertex="1" parent="1">
          <mxGeometry x="33.75" y="-725" width="50" height="50" as="geometry" />
        </mxCell>
        <mxCell id="lo2OrRyrxvKk0OBogVc3-45" value="" style="ellipse;whiteSpace=wrap;html=1;aspect=fixed;fontFamily=Helvetica;fontSize=10;dashed=1;strokeWidth=2;fontStyle=0" vertex="1" parent="1">
          <mxGeometry x="-116.25" y="-730" width="50" height="50" as="geometry" />
        </mxCell>
        <mxCell id="lo2OrRyrxvKk0OBogVc3-46" value="" style="ellipse;whiteSpace=wrap;html=1;aspect=fixed;fontFamily=Helvetica;fontSize=10;dashed=1;shadow=0;strokeWidth=2;fontStyle=0" vertex="1" parent="1">
          <mxGeometry x="-156.25" y="-666" width="50" height="50" as="geometry" />
        </mxCell>
        <mxCell id="lo2OrRyrxvKk0OBogVc3-51" value="" style="endArrow=classic;html=1;rounded=0;fontSize=10;fontColor=#000000;strokeWidth=2;entryX=0.88;entryY=0.227;entryDx=0;entryDy=0;entryPerimeter=0;fontStyle=0" edge="1" parent="1" target="lo2OrRyrxvKk0OBogVc3-28">
          <mxGeometry width="50" height="50" relative="1" as="geometry">
            <mxPoint x="83.75" y="-487" as="sourcePoint" />
            <mxPoint x="133.75" y="-537" as="targetPoint" />
          </mxGeometry>
        </mxCell>
        <mxCell id="lo2OrRyrxvKk0OBogVc3-53" value="" style="endArrow=classic;html=1;rounded=0;fontSize=10;fontColor=#000000;strokeWidth=2;fontStyle=0" edge="1" parent="1" source="lo2OrRyrxvKk0OBogVc3-26">
          <mxGeometry width="50" height="50" relative="1" as="geometry">
            <mxPoint x="-91.25" y="-546" as="sourcePoint" />
            <mxPoint x="-41.25" y="-596" as="targetPoint" />
          </mxGeometry>
        </mxCell>
        <mxCell id="lo2OrRyrxvKk0OBogVc3-56" value="" style="shape=flexArrow;endArrow=classic;html=1;rounded=0;fontFamily=Helvetica;fontSize=9;fontColor=default;startSize=0;endWidth=24;endSize=8;width=10;strokeWidth=2;fontStyle=0" edge="1" parent="1">
          <mxGeometry width="50" height="50" relative="1" as="geometry">
            <mxPoint x="-210" y="-479.5" as="sourcePoint" />
            <mxPoint x="-140" y="-480" as="targetPoint" />
          </mxGeometry>
        </mxCell>
        <mxCell id="lo2OrRyrxvKk0OBogVc3-57" value="" style="shape=flexArrow;endArrow=classic;html=1;rounded=0;fontFamily=Helvetica;fontSize=9;fontColor=default;startSize=0;endWidth=24;endSize=8;width=10;strokeWidth=2;fontStyle=0" edge="1" parent="1">
          <mxGeometry width="50" height="50" relative="1" as="geometry">
            <mxPoint x="-20" y="-380" as="sourcePoint" />
            <mxPoint x="-20" y="-330" as="targetPoint" />
          </mxGeometry>
        </mxCell>
        <mxCell id="lo2OrRyrxvKk0OBogVc3-59" value="" style="shape=flexArrow;endArrow=classic;html=1;rounded=0;fontFamily=Helvetica;fontSize=9;fontColor=default;startSize=0;endWidth=24;endSize=4.633333333333333;width=11.666666666666668;strokeWidth=2;fontStyle=0" edge="1" parent="1">
          <mxGeometry width="50" height="50" relative="1" as="geometry">
            <mxPoint x="-146.25" y="-240" as="sourcePoint" />
            <mxPoint x="-236.25" y="-240" as="targetPoint" />
          </mxGeometry>
        </mxCell>
        <mxCell id="lo2OrRyrxvKk0OBogVc3-61" value="" style="endArrow=none;html=1;rounded=0;fontSize=8;fontColor=#000000;strokeWidth=2;fontStyle=0" edge="1" parent="1" target="lo2OrRyrxvKk0OBogVc3-39">
          <mxGeometry width="50" height="50" relative="1" as="geometry">
            <mxPoint x="63.75" y="-530" as="sourcePoint" />
            <mxPoint x="113.75" y="-580" as="targetPoint" />
          </mxGeometry>
        </mxCell>
        <mxCell id="lo2OrRyrxvKk0OBogVc3-63" value="" style="endArrow=none;html=1;rounded=0;fontSize=8;fontColor=#000000;strokeWidth=2;exitX=0.97;exitY=0.42;exitDx=0;exitDy=0;exitPerimeter=0;entryX=0.189;entryY=0.922;entryDx=0;entryDy=0;entryPerimeter=0;fontStyle=0" edge="1" parent="1" source="lo2OrRyrxvKk0OBogVc3-29" target="lo2OrRyrxvKk0OBogVc3-39">
          <mxGeometry width="50" height="50" relative="1" as="geometry">
            <mxPoint x="53.75" y="-416" as="sourcePoint" />
            <mxPoint x="103.75" y="-466" as="targetPoint" />
          </mxGeometry>
        </mxCell>
      </root>
    </mxGraphModel>
  </diagram>
</mxfile>
